# Blender v2.78 (sub 0) OBJ File: 'manaCrystal.blend'
# www.blender.org
mtllib manaCrystalWithUVMap.mtl
o Cone.001
v 0.449441 -3.178017 0.086358
v -0.449441 -3.178017 -0.086358
v -0.086358 -3.178017 0.449441
v 0.381096 -0.815420 -0.560147
v 0.126608 -0.815419 0.665559
v -0.665559 -0.815420 0.126608
v -0.585339 -1.666271 -0.793706
v 0.176784 -1.915464 -0.931576
v -0.931576 -1.915464 -0.176784
v 0.783729 -1.915464 -0.533718
v -0.783729 -1.915464 0.533718
v -0.176784 -1.915464 0.931576
v 0.533718 -1.915464 0.783729
v 0.975132 -1.666271 0.147338
v 0.004234 -3.720799 -0.128869
v -0.000000 0.066647 -0.000000
vt 0.7524 0.3126
vt 0.8376 0.4385
vt 0.7290 0.4791
vt 0.0530 0.3611
vt 0.1936 0.4081
vt 0.1070 0.4930
vt 0.9314 0.3991
vt 0.5548 0.5967
vt 0.5234 0.4308
vt 0.6131 0.4144
vt 0.3370 0.6702
vt 0.3134 0.5019
vt 0.4127 0.5497
vt 0.7287 0.4383
vt 0.7077 0.6272
vt 0.4215 0.3146
vt 0.5135 0.2254
vt 0.5231 0.3422
vt 0.5231 0.5961
vt 0.9314 0.6539
vt 0.8824 0.7622
vt 0.3130 0.7521
vt 0.3130 0.4319
vt 0.2247 0.6789
vt 0.0590 0.5496
vt 0.6297 0.2742
vt 0.6980 0.2254
vt 0.7287 0.2777
vt 0.7509 0.2254
vt 0.3605 0.7623
vt 0.5994 0.7717
vt 0.0995 0.2254
vt 0.2451 0.3054
vn 0.5395 0.1777 -0.8230
vn -0.8766 0.3128 -0.3656
vn 0.8784 0.3128 -0.3613
vn -0.9634 0.1777 0.2005
vn 0.2005 0.1777 0.9634
vn -0.5233 0.3394 0.7816
vn 0.1917 -0.3381 0.9214
vn 0.4405 -0.6191 0.6501
vn 0.5028 -0.4434 0.7420
vn 0.8339 -0.3084 0.4576
vn 0.9362 -0.3197 -0.1461
vn 0.7627 -0.4364 -0.4773
vn 0.5047 -0.3906 -0.7699
vn -0.2806 -0.3674 -0.8867
vn -0.5426 -0.3955 -0.7410
vn -0.7599 -0.3303 -0.5599
vn -0.9214 -0.3381 0.1917
vn -0.6668 -0.5927 0.4518
vn -0.7420 -0.4434 0.5028
vn -0.5160 -0.3376 0.7872
vn 0.8663 0.4741 -0.1572
vn 0.7514 0.4628 0.4704
vn -0.4943 0.4773 0.7266
vn -0.7237 0.4741 -0.5014
vn -0.1987 0.4628 -0.8639
vn -0.0626 0.3297 -0.9420
vn 0.7104 0.3297 0.6218
usemtl None
s off
f 4/1/1 10/2/1 8/3/1
f 6/4/2 7/5/2 9/6/2
f 4/1/3 14/7/3 10/2/3
f 6/8/4 9/9/4 11/10/4
f 5/11/5 12/12/5 13/13/5
f 11/10/6 12/14/6 5/15/6 6/8/6
f 3/16/7 13/13/7 12/12/7
f 3/16/8 15/17/8 1/18/8
f 3/16/9 1/18/9 13/13/9
f 1/18/10 14/19/10 13/13/10
f 1/20/11 10/2/11 14/7/11
f 1/20/12 15/21/12 10/2/12
f 15/21/13 8/3/13 10/2/13
f 15/22/14 7/5/14 8/23/14
f 15/22/15 2/24/15 7/5/15
f 2/24/16 9/6/16 7/5/16
f 2/24/17 11/25/17 9/6/17
f 2/26/18 15/27/18 3/28/18
f 2/26/19 3/28/19 11/10/19
f 3/28/20 12/14/20 11/10/20
f 4/1/21 16/29/21 14/7/21
f 14/19/22 16/30/22 5/11/22
f 5/15/23 16/31/23 6/8/23
f 6/4/24 16/32/24 7/5/24
f 7/5/25 16/32/25 4/33/25
f 7/5/26 4/33/26 8/23/26
f 14/19/27 5/11/27 13/13/27
